<?xml version="1.0" standalone="no"?>
<!DOCTYPE svg PUBLIC "-//W3C//DTD SVG 20010904//EN"
 "http://www.w3.org/TR/2001/REC-SVG-20010904/DTD/svg10.dtd">
<svg version="1.0" xmlns="http://www.w3.org/2000/svg"
 width="1600.000000pt" height="1600.000000pt" viewBox="0 0 1600.000000 1600.000000"
 preserveAspectRatio="xMidYMid meet">
<metadata>
Created by potrace 1.14, written by Peter Selinger 2001-2017
</metadata>
<g transform="translate(0.000000,1600.000000) scale(0.100000,-0.100000)"
fill="#000000" stroke="none">
<path d="M8003 15384 c5 -8 -7 -12 -36 -13 -84 -2 -102 -5 -114 -17 -7 -6 -9
-15 -5 -20 4 -5 0 -3 -9 4 -9 7 -24 10 -33 6 -9 -3 -16 -1 -16 6 0 6 5 8 12 4
7 -4 8 -3 4 5 -6 9 -11 9 -22 0 -7 -6 -12 -15 -9 -18 2 -4 -2 -8 -10 -8 -8 0
-12 4 -9 9 6 9 -25 6 -43 -5 -6 -4 -15 -2 -19 4 -5 8 -3 9 6 4 9 -5 11 -4 6 4
-4 6 -13 8 -19 4 -7 -4 -19 -8 -27 -8 -8 0 -21 -4 -29 -9 -10 -6 -12 -5 -7 2
9 15 5 15 -29 2 -17 -7 -24 -7 -20 0 3 6 -1 10 -10 10 -10 0 -13 -5 -9 -12 5
-7 3 -8 -7 -3 -7 5 -30 9 -50 9 -31 1 -35 -1 -26 -13 10 -12 9 -12 -10 -2 -21
10 -27 8 -25 -10 1 -8 -31 -5 -47 6 -11 6 -13 4 -8 -9 5 -12 3 -15 -6 -9 -16
10 -117 11 -117 0 0 -4 -8 -3 -18 2 -13 7 -23 6 -32 -2 -9 -8 -11 -9 -6 0 7
13 -19 12 -31 -2 -4 -4 -2 -5 5 -1 6 4 12 2 12 -3 0 -15 -27 -14 -33 2 -4 7
-6 6 -6 -4 -1 -22 -30 -32 -47 -18 -11 9 -14 8 -14 -1 0 -10 -3 -10 -15 0 -12
10 -15 10 -15 -1 0 -11 -2 -11 -9 0 -7 11 -13 12 -23 3 -11 -9 -17 -9 -26 0
-9 9 -12 9 -12 -1 0 -11 -3 -11 -15 -1 -13 11 -18 11 -28 0 -10 -10 -9 -11 2
-5 10 6 12 4 6 -5 -6 -10 -10 -10 -20 3 -10 14 -13 13 -30 -9 -14 -19 -21 -22
-31 -13 -11 9 -14 8 -14 -2 0 -9 -3 -10 -8 -4 -12 17 -62 13 -62 -5 0 -13 -2
-13 -9 -1 -8 13 -12 13 -27 0 -15 -12 -17 -12 -9 0 6 11 4 13 -9 8 -10 -4 -20
-7 -24 -7 -3 0 2 -6 12 -13 16 -12 16 -13 -3 -13 -12 0 -21 4 -21 9 0 4 -6 5
-12 0 -18 -11 -32 -10 -40 2 -5 6 -8 6 -8 -2 0 -6 -9 -10 -20 -8 -11 2 -20 -2
-21 -8 0 -7 -4 -3 -9 8 -8 19 -9 18 -9 -4 -1 -20 -5 -23 -27 -18 -20 3 -24 1
-19 -11 4 -12 0 -11 -16 4 -12 10 -19 13 -15 7 4 -7 3 -13 -1 -13 -5 0 -15 6
-22 13 -8 6 -11 7 -8 1 4 -6 -3 -20 -14 -30 -16 -14 -22 -16 -28 -5 -6 9 -11
10 -15 2 -4 -6 -12 -11 -17 -11 -6 0 -7 5 -3 12 5 7 3 8 -7 2 -19 -12 -52 -12
-61 1 -5 6 -8 2 -8 -8 0 -10 -4 -15 -10 -12 -5 3 -21 -2 -35 -11 -14 -9 -25
-13 -25 -9 0 4 -8 1 -17 -6 -11 -10 -14 -10 -9 -1 4 6 3 12 -1 12 -5 0 -15 -6
-22 -12 -11 -11 -12 -10 -6 1 6 10 4 12 -4 7 -7 -5 -10 -13 -8 -20 3 -7 -5
-13 -16 -14 -17 -1 -19 1 -7 8 9 6 10 10 3 10 -6 0 -15 -5 -19 -11 -3 -6 -14
-9 -24 -6 -9 2 -22 -4 -29 -15 -6 -10 -16 -16 -21 -13 -5 3 -19 1 -31 -6 -15
-8 -19 -8 -15 0 10 15 -7 14 -23 -1 -8 -7 -11 -8 -8 -2 3 6 0 11 -8 11 -8 0
-12 -4 -9 -9 3 -4 0 -8 -6 -8 -6 0 -8 -4 -5 -10 3 -5 1 -10 -4 -10 -6 0 -11 6
-11 13 0 9 -2 9 -8 0 -4 -7 -29 -14 -54 -15 -34 -2 -44 -6 -40 -17 4 -10 0
-13 -16 -9 -11 3 -23 1 -26 -6 -3 -7 -8 -6 -15 4 -9 12 -11 13 -11 1 0 -8 -3
-11 -7 -8 -3 4 -11 0 -17 -8 -6 -9 -28 -16 -49 -17 -21 -1 -43 -8 -50 -17 -11
-14 -10 -14 6 -2 15 12 17 12 11 -2 -3 -9 -14 -15 -24 -14 -10 1 -16 5 -13 10
3 5 -4 4 -16 -2 -11 -7 -21 -8 -22 -4 0 4 -4 -1 -9 -13 -6 -16 -16 -20 -49
-18 -23 1 -44 -3 -48 -9 -3 -6 -1 -7 5 -3 7 4 10 2 6 -7 -2 -7 -11 -14 -19
-14 -8 0 -11 5 -8 11 4 6 -4 2 -17 -9 -14 -12 -20 -14 -15 -5 7 12 6 13 -7 3
-8 -7 -19 -9 -24 -5 -4 4 -2 -2 6 -12 12 -15 12 -18 1 -12 -8 5 -17 3 -22 -5
-6 -10 -9 -11 -9 -1 0 6 -5 12 -11 12 -5 0 -7 -4 -4 -10 4 -6 -1 -7 -11 -3
-13 5 -16 2 -12 -8 5 -12 -2 -15 -31 -15 -21 0 -35 -5 -34 -11 3 -17 -24 -36
-32 -23 -9 14 -28 13 -19 -2 4 -7 4 -10 -1 -6 -4 4 -15 2 -23 -4 -8 -7 -21
-13 -31 -14 -42 -6 -90 -28 -84 -38 4 -6 -2 -4 -12 4 -17 14 -18 13 -12 -4 7
-17 6 -17 -10 -5 -11 9 -14 10 -9 2 4 -8 2 -13 -4 -13 -6 0 -9 -4 -6 -9 3 -4
-12 -7 -34 -6 -31 2 -38 -1 -30 -10 8 -9 6 -14 -6 -19 -23 -9 -31 -7 -14 4 8
5 10 10 4 10 -6 0 -24 -11 -40 -25 -18 -16 -37 -23 -52 -20 -18 3 -22 0 -18
-10 3 -10 -5 -17 -27 -23 -18 -5 -31 -14 -30 -19 1 -5 -4 -10 -12 -10 -8 0
-12 5 -9 11 3 6 -1 3 -9 -7 -10 -12 -17 -14 -22 -7 -9 15 -27 1 -21 -17 4 -10
2 -13 -8 -10 -8 3 -17 1 -20 -6 -3 -9 -5 -8 -5 1 -1 20 -41 -5 -42 -26 0 -10
-3 -12 -6 -5 -3 9 -10 10 -22 3 -10 -5 -21 -6 -25 -2 -4 3 -4 -1 -1 -10 4 -9
1 -19 -6 -24 -8 -5 -10 -3 -4 5 6 10 3 11 -14 2 -11 -7 -21 -19 -21 -29 0 -15
-2 -15 -10 -2 -8 12 -10 12 -10 1 0 -8 -3 -11 -7 -8 -3 4 -11 0 -17 -8 -6 -9
-25 -16 -42 -18 -26 -2 -31 -6 -29 -24 1 -14 -2 -20 -9 -16 -17 11 -36 12 -36
2 0 -5 -7 -9 -15 -9 -8 0 -15 -5 -15 -11 0 -6 -9 -9 -20 -6 -11 3 -18 1 -14
-4 3 -5 0 -9 -5 -9 -6 0 -11 -5 -11 -12 0 -9 3 -9 12 0 7 7 16 12 22 12 5 0 1
-6 -10 -14 -15 -11 -22 -12 -33 -3 -12 9 -13 9 -7 0 4 -8 1 -13 -8 -13 -9 0
-15 -3 -15 -7 3 -21 -3 -24 -18 -12 -12 10 -14 10 -9 1 4 -7 1 -15 -8 -18 -9
-3 -13 -11 -9 -18 4 -7 1 -7 -7 1 -11 10 -18 7 -36 -12 -22 -24 -41 -34 -30
-16 4 5 -5 4 -18 -2 -16 -8 -21 -14 -13 -19 7 -4 8 -8 2 -9 -5 -1 -14 -2 -20
-3 -5 -1 -27 -10 -48 -20 -28 -14 -35 -22 -27 -31 8 -9 4 -11 -16 -7 -21 4
-25 2 -19 -9 7 -11 5 -11 -10 1 -17 14 -18 13 -12 -2 4 -12 2 -18 -8 -18 -8 0
-21 -9 -29 -21 -9 -14 -19 -18 -28 -13 -9 5 -8 2 2 -11 8 -10 10 -16 4 -12 -7
4 -17 0 -24 -8 -9 -11 -17 -12 -32 -4 -11 6 -18 7 -14 1 7 -12 -28 -44 -39
-35 -5 5 -4 0 3 -9 11 -14 10 -16 -12 -14 -16 2 -23 -1 -19 -9 2 -7 -1 -16 -6
-20 -6 -3 -8 -12 -5 -18 4 -8 2 -7 -7 1 -12 11 -12 14 0 21 9 6 10 11 2 15 -6
4 -11 3 -11 -2 0 -16 -39 -54 -49 -48 -6 4 -8 -2 -6 -13 2 -14 -1 -18 -11 -14
-8 3 -14 0 -14 -7 0 -7 -7 -10 -15 -6 -8 3 -15 1 -15 -5 0 -6 -5 -7 -12 -3 -6
4 -8 3 -4 -4 3 -6 -3 -13 -14 -17 -11 -3 -19 -12 -17 -18 1 -7 -4 -11 -10 -10
-7 2 -13 -2 -13 -7 0 -6 -6 -10 -12 -9 -21 3 -48 -12 -42 -23 4 -6 10 -5 16 3
8 11 9 11 5 -1 -2 -8 -12 -14 -22 -12 -12 2 -16 -1 -12 -11 4 -11 0 -13 -15
-9 -12 3 -19 1 -16 -4 6 -11 -37 -55 -46 -47 -3 4 -6 1 -6 -5 0 -7 -9 -21 -19
-31 -14 -14 -22 -16 -31 -7 -10 8 -11 8 -5 -2 11 -20 -26 -44 -45 -29 -12 9
-13 9 -3 -3 19 -21 16 -27 -19 -34 -17 -3 -29 -9 -25 -12 8 -9 -32 -46 -43
-39 -6 4 -7 -2 -3 -12 3 -10 3 -15 -2 -11 -8 8 -35 -15 -35 -31 0 -5 -5 -13
-12 -17 -7 -5 -8 -3 -3 5 6 10 3 11 -14 2 -20 -11 -25 -22 -22 -46 1 -5 -5 -2
-13 8 -12 16 -14 15 -21 -15 -4 -18 -9 -27 -12 -20 -2 6 -9 12 -15 12 -6 0 -8
-7 -4 -15 3 -10 -1 -15 -13 -15 -25 0 -33 -11 -19 -27 9 -11 7 -13 -15 -9 -15
2 -30 0 -33 -6 -4 -7 -2 -8 4 -4 7 4 12 0 12 -10 0 -10 -3 -15 -6 -11 -4 3
-21 -10 -39 -29 -18 -18 -38 -34 -44 -34 -7 0 -9 -4 -6 -10 3 -5 -2 -10 -12
-10 -15 0 -16 -2 -3 -10 12 -8 11 -10 -7 -10 -13 0 -23 -6 -23 -13 0 -19 -35
-49 -45 -40 -4 5 -5 0 -1 -11 4 -13 2 -17 -8 -13 -17 7 -30 -19 -13 -27 7 -3
1 -3 -12 0 -15 4 -21 2 -17 -4 3 -6 -2 -13 -13 -17 -10 -3 -18 -11 -17 -18 0
-7 -3 -13 -9 -15 -5 -2 -14 -10 -18 -18 -5 -8 -12 -12 -17 -9 -4 3 -6 -5 -2
-17 4 -16 2 -19 -8 -13 -10 6 -12 4 -7 -9 4 -10 3 -15 -3 -11 -6 3 -10 2 -10
-2 0 -5 -7 -18 -16 -29 -8 -10 -13 -13 -9 -7 4 8 1 11 -9 7 -8 -3 -12 -12 -10
-19 3 -7 0 -16 -7 -21 -8 -5 -10 -3 -4 7 8 12 6 12 -8 0 -9 -7 -14 -17 -11
-22 5 -8 -9 -13 -28 -10 -4 0 -5 -5 -2 -13 3 -7 -3 -19 -12 -27 -16 -12 -17
-12 -9 1 8 13 7 13 -8 1 -18 -15 -23 -26 -7 -16 6 3 10 1 10 -4 0 -6 -7 -11
-16 -11 -10 0 -14 -5 -10 -16 3 -8 2 -12 -3 -9 -5 3 -12 1 -16 -5 -3 -5 -1
-10 5 -10 6 0 9 -4 5 -10 -3 -5 -12 -7 -19 -4 -8 3 -17 0 -22 -7 -5 -8 -3 -10
5 -4 10 6 11 3 2 -14 -7 -11 -14 -21 -17 -21 -3 0 -2 6 2 13 4 6 -2 3 -13 -8
-11 -11 -18 -24 -15 -29 3 -5 -3 -6 -13 -2 -15 5 -16 4 -5 -9 11 -13 11 -16
-1 -13 -8 2 -13 -3 -11 -11 3 -12 0 -12 -13 -1 -13 11 -15 10 -10 -3 4 -10 -1
-17 -13 -21 -13 -5 -18 -14 -16 -31 1 -14 -3 -28 -8 -32 -7 -3 -8 -1 -4 5 4 7
1 12 -7 12 -8 0 -14 -9 -13 -20 0 -11 -2 -18 -6 -17 -11 3 -58 -65 -58 -84 0
-10 -5 -21 -12 -25 -7 -5 -8 -3 -3 7 8 12 6 12 -9 0 -9 -8 -14 -21 -11 -29 3
-10 0 -12 -10 -9 -8 4 -17 2 -20 -3 -4 -6 0 -10 7 -10 10 0 9 -3 -2 -9 -8 -6
-19 -7 -25 -3 -5 3 -4 -1 3 -10 11 -14 10 -19 -12 -33 -14 -10 -26 -24 -26
-32 0 -8 -5 -11 -12 -7 -8 5 -9 2 -5 -10 5 -12 0 -19 -18 -26 -14 -5 -25 -12
-25 -15 0 -4 5 -3 11 1 7 4 10 1 7 -7 -3 -8 -10 -13 -16 -12 -5 1 -13 -4 -16
-13 -3 -8 -2 -12 4 -9 6 3 10 1 10 -4 0 -10 -22 -16 -44 -12 -5 1 -4 -4 3 -13
10 -12 8 -15 -8 -21 -10 -3 -22 -12 -25 -20 -3 -10 0 -12 12 -8 14 6 15 5 2
-9 -8 -9 -18 -14 -22 -12 -8 5 -18 -10 -23 -37 -2 -12 -12 -27 -22 -35 -14
-10 -15 -13 -4 -14 11 0 9 -4 -4 -14 -11 -8 -24 -12 -28 -9 -5 3 -7 -3 -5 -13
2 -12 -2 -18 -10 -16 -8 1 -11 -2 -7 -8 3 -5 2 -10 -4 -10 -6 0 -8 -6 -5 -13
2 -7 -3 -21 -12 -32 -8 -11 -12 -13 -9 -5 4 8 -4 2 -18 -15 -14 -16 -23 -37
-22 -47 2 -9 -3 -19 -11 -22 -8 -3 -14 -13 -14 -21 0 -9 -4 -14 -9 -11 -4 3
-7 -5 -6 -19 2 -18 -1 -22 -13 -18 -10 4 -13 2 -8 -5 4 -7 2 -12 -5 -12 -8 0
-7 -5 2 -17 8 -9 10 -14 4 -11 -10 6 -29 -9 -34 -27 -2 -5 -8 -9 -14 -7 -6 2
-4 -4 3 -13 11 -13 10 -14 -5 -9 -13 5 -16 4 -11 -4 4 -7 2 -12 -6 -12 -9 0
-9 -3 2 -10 12 -7 12 -10 1 -10 -8 0 -11 -6 -7 -16 3 -8 2 -13 -3 -10 -5 3
-15 -2 -22 -11 -12 -14 -12 -16 1 -8 12 7 13 6 3 -7 -7 -8 -10 -18 -6 -21 3
-4 -1 -7 -10 -7 -23 0 -31 -18 -15 -37 10 -14 10 -15 0 -9 -9 5 -15 1 -19 -14
-3 -11 -11 -19 -18 -16 -9 3 -11 -2 -7 -16 4 -16 2 -19 -9 -13 -11 7 -11 5 1
-10 8 -10 10 -16 3 -12 -7 5 -16 -1 -22 -12 -9 -16 -8 -20 6 -23 14 -3 14 -5
-2 -18 -11 -8 -16 -10 -12 -4 3 6 0 11 -7 11 -8 0 -12 -6 -9 -14 3 -7 -1 -13
-8 -13 -11 0 -11 -3 1 -10 12 -8 12 -10 1 -10 -8 0 -12 -3 -8 -6 3 -3 -3 -16
-14 -27 -14 -16 -16 -23 -7 -29 10 -6 10 -8 0 -8 -8 0 -10 -5 -6 -12 5 -7 2
-9 -8 -5 -18 6 -33 -29 -17 -39 5 -3 3 -11 -4 -18 -6 -8 -15 -12 -19 -10 -4 2
-10 -1 -14 -7 -4 -8 -3 -9 4 -5 7 4 12 3 12 -3 0 -5 -6 -12 -12 -14 -10 -4 -9
-8 2 -16 12 -8 12 -11 1 -11 -7 0 -11 -6 -8 -14 4 -10 1 -13 -7 -10 -8 3 -17
0 -22 -7 -4 -8 -3 -10 4 -5 7 4 12 2 12 -3 0 -6 -5 -11 -11 -11 -6 0 -9 -7 -5
-15 3 -8 0 -18 -7 -22 -17 -11 -45 -49 -30 -39 7 4 13 2 13 -3 0 -6 -4 -11
-10 -11 -5 0 -10 -5 -10 -11 0 -5 5 -7 10 -4 6 3 10 4 10 0 0 -3 -12 -10 -27
-16 -20 -7 -24 -12 -14 -18 10 -7 8 -12 -10 -25 -13 -9 -19 -16 -13 -16 5 0
15 5 22 12 9 9 12 9 12 1 0 -7 -8 -14 -18 -17 -10 -4 -19 -17 -20 -33 -1 -15
-8 -30 -15 -35 -9 -6 -9 -8 1 -8 7 0 10 -5 7 -10 -4 -6 -10 -8 -15 -5 -4 3
-11 -2 -14 -11 -3 -8 -2 -12 4 -9 6 3 10 2 10 -4 0 -5 -5 -13 -10 -16 -6 -4
-7 -11 -4 -17 5 -7 2 -9 -7 -6 -10 4 -15 -2 -17 -20 -1 -14 -7 -31 -13 -39 -7
-7 -9 -16 -5 -20 3 -3 6 0 6 7 0 7 3 10 7 6 4 -4 -3 -16 -17 -27 -16 -13 -21
-22 -13 -25 7 -3 9 -12 6 -20 -3 -7 -9 -12 -13 -9 -5 3 -6 -5 -3 -17 3 -17 2
-19 -5 -10 -7 11 -10 9 -15 -7 -2 -11 0 -22 7 -25 8 -3 7 -5 -1 -5 -7 -1 -10
-8 -6 -18 4 -10 2 -14 -5 -9 -7 4 -10 -1 -7 -14 3 -14 -1 -20 -13 -20 -15 0
-15 -2 -2 -10 12 -8 12 -10 -5 -11 -11 0 -14 -3 -8 -6 8 -3 11 -14 7 -30 -5
-20 -4 -24 6 -18 9 5 11 4 6 -4 -6 -9 -11 -9 -21 -1 -9 8 -14 6 -19 -5 -3 -9
-2 -13 4 -10 6 3 10 1 10 -4 0 -6 -5 -11 -11 -11 -5 0 -8 -4 -4 -9 3 -5 1 -13
-5 -16 -8 -5 -7 -12 2 -23 11 -13 10 -15 -8 -10 -13 3 -21 0 -21 -8 0 -7 5
-10 11 -7 6 3 5 0 -1 -8 -17 -17 -17 -42 0 -34 6 4 5 0 -5 -7 -13 -11 -14 -18
-5 -33 9 -18 9 -19 -6 -6 -18 14 -20 10 -21 -61 0 -15 -4 -24 -10 -21 -5 4 -7
-1 -3 -10 6 -15 -3 -22 -25 -18 -4 0 -5 -6 -1 -15 5 -13 7 -13 14 -2 6 9 9 9
9 1 0 -7 -8 -17 -17 -22 -10 -6 -13 -11 -8 -11 6 0 10 -11 10 -24 0 -13 -3
-22 -7 -20 -4 2 -9 0 -13 -6 -3 -5 -1 -10 5 -10 6 0 8 -5 5 -10 -4 -6 -10 -8
-15 -5 -5 3 -11 1 -15 -5 -3 -5 -1 -10 6 -10 8 0 8 -4 -1 -15 -7 -8 -8 -15 -3
-15 5 0 10 -7 10 -15 0 -10 -4 -12 -12 -5 -9 8 -11 4 -7 -15 3 -17 -1 -27 -12
-31 -13 -5 -14 -9 -5 -20 9 -11 9 -14 0 -14 -9 0 -9 -5 -1 -20 7 -12 7 -20 1
-20 -5 0 -8 -9 -6 -20 2 -11 1 -18 -4 -16 -4 3 -12 -8 -18 -25 -9 -22 -8 -28
0 -23 8 5 8 2 0 -7 -16 -16 -17 -33 -2 -23 8 4 8 0 0 -15 -7 -12 -9 -26 -6
-31 3 -6 -2 -10 -12 -10 -15 0 -16 -2 -3 -10 10 -6 11 -10 3 -10 -7 0 -13 -5
-13 -11 0 -5 5 -7 12 -3 7 4 8 3 4 -4 -4 -7 -15 -12 -24 -12 -13 0 -13 -2 4
-16 10 -8 14 -13 8 -10 -7 4 -11 -11 -12 -42 0 -77 -1 -82 -15 -76 -8 3 -14
-2 -14 -10 0 -8 5 -12 11 -9 8 5 8 3 0 -8 -15 -20 -16 -61 -1 -52 9 5 8 2 0
-9 -7 -8 -10 -18 -6 -21 3 -4 2 -7 -4 -7 -17 0 -25 -31 -12 -46 9 -12 9 -13
-3 -9 -17 7 -21 -23 -5 -43 7 -9 5 -11 -9 -5 -17 6 -17 5 -6 -10 10 -11 11
-21 3 -34 -7 -13 -5 -23 7 -36 12 -13 12 -18 3 -15 -7 2 -16 -3 -19 -11 -3 -8
0 -11 7 -7 7 5 9 1 5 -8 -3 -9 -11 -13 -18 -9 -6 4 -6 0 2 -9 10 -13 10 -18 1
-24 -8 -5 -9 -3 -4 7 8 12 6 12 -8 0 -19 -15 -23 -26 -7 -16 12 7 7 -36 -6
-56 -4 -7 -3 -9 4 -5 7 4 10 -1 9 -14 -1 -11 -6 -20 -12 -20 -6 0 -7 -3 0 -8
15 -11 17 -32 3 -32 -10 0 -10 -2 -1 -8 14 -9 6 -82 -8 -82 -5 0 -9 -5 -9 -11
0 -5 6 -7 13 -3 8 6 8 3 -1 -9 -8 -9 -10 -22 -6 -29 5 -8 1 -8 -11 2 -19 16
-20 17 6 -30 1 -3 -3 -16 -10 -29 -8 -14 -9 -21 -2 -17 14 9 14 0 0 -26 -9
-16 -8 -19 3 -12 11 6 11 5 -1 -9 -10 -13 -10 -17 -1 -17 10 0 10 -3 0 -15 -9
-11 -9 -15 -1 -15 9 0 9 -5 1 -20 -6 -11 -7 -20 -2 -20 11 0 9 -51 -2 -68 -4
-7 -1 -12 6 -12 9 0 9 -3 -2 -10 -13 -9 -13 -10 0 -10 13 0 13 -1 0 -10 -13
-9 -13 -10 0 -10 13 0 13 -1 0 -10 -13 -8 -13 -10 0 -10 11 0 11 -3 2 -12 -16
-16 -15 -31 0 -22 11 6 11 4 1 -7 -17 -17 -17 -53 -1 -43 7 4 2 -5 -12 -21
-14 -16 -19 -25 -12 -21 7 5 12 1 12 -9 0 -12 -5 -15 -16 -11 -13 5 -14 3 -6
-6 5 -7 9 -25 7 -41 -2 -15 1 -25 6 -21 5 3 7 10 4 15 -4 5 -2 17 4 26 8 14 9
11 6 -16 -2 -19 -10 -38 -17 -42 -9 -6 -7 -9 7 -9 19 -1 19 -1 2 -11 -14 -8
-16 -14 -6 -25 6 -7 15 -11 20 -8 5 3 9 1 9 -5 0 -5 -9 -13 -20 -16 -18 -6
-18 -8 -5 -21 20 -20 19 -30 -1 -14 -12 11 -15 11 -12 -1 2 -8 8 -17 13 -21 6
-5 4 -8 -5 -8 -13 0 -13 -1 0 -10 13 -8 13 -10 1 -10 -11 0 -9 -4 5 -15 18
-15 18 -15 0 -8 -13 4 -17 3 -12 -5 4 -7 2 -12 -5 -12 -7 0 -5 -6 6 -13 13
-10 15 -16 6 -21 -9 -6 -9 -13 2 -29 23 -37 27 -66 9 -77 -12 -7 -13 -9 -3
-10 11 0 11 -3 1 -15 -10 -12 -9 -16 5 -21 13 -5 14 -9 3 -15 -10 -7 -10 -9 0
-9 10 0 10 -5 2 -20 -8 -15 -8 -20 2 -20 9 0 9 -3 -2 -10 -11 -7 -11 -10 -2
-10 9 0 10 -5 2 -19 -7 -14 -6 -21 3 -24 9 -3 9 -7 -2 -20 -8 -10 -9 -17 -3
-17 12 0 10 -38 -2 -58 -4 -7 -2 -12 5 -12 8 0 8 -4 -1 -15 -9 -10 -9 -15 -1
-15 6 0 11 -5 11 -11 0 -5 -5 -7 -12 -3 -7 5 -8 3 -2 -7 5 -8 10 -25 12 -39 4
-40 11 -52 24 -44 7 4 4 -2 -6 -14 -13 -15 -15 -22 -6 -22 7 0 10 -8 7 -20 -3
-11 -1 -18 4 -14 5 3 9 0 9 -5 0 -6 -6 -11 -12 -11 -8 0 -9 -3 -3 -8 15 -11
17 -32 3 -32 -10 0 -10 -2 0 -9 8 -4 14 -12 14 -16 0 -4 -6 -12 -14 -16 -7 -5
-8 -9 -3 -9 6 0 11 -9 12 -20 1 -13 -3 -18 -10 -14 -7 3 1 -6 16 -20 15 -14
23 -26 18 -26 -6 0 -11 -5 -11 -11 0 -5 4 -8 8 -5 10 6 9 -51 -1 -60 -4 -4 -7
-12 -7 -18 0 -6 5 -4 10 4 12 19 8 -48 -4 -68 -5 -8 -1 -21 11 -34 10 -12 13
-18 6 -15 -7 5 -9 0 -6 -13 3 -11 10 -20 17 -20 6 0 4 -5 -4 -10 -13 -9 -13
-10 0 -11 8 -1 19 -1 23 0 5 1 6 -3 2 -9 -3 -6 -10 -8 -15 -5 -4 3 -6 -4 -3
-15 3 -11 10 -20 17 -20 6 0 4 -4 -4 -10 -8 -5 -11 -12 -7 -16 4 -4 1 -14 -6
-22 -8 -11 -8 -14 0 -9 6 4 14 3 18 -3 3 -5 1 -10 -5 -10 -7 0 -5 -7 4 -16 21
-21 20 -30 -1 -13 -17 13 -17 13 -1 -6 9 -11 21 -32 27 -47 9 -24 8 -26 -7
-21 -14 5 -15 4 -6 -8 6 -8 11 -26 10 -41 -1 -21 1 -24 11 -16 13 11 19 -3 6
-16 -11 -10 -12 -37 -2 -30 5 3 6 11 3 17 -5 8 -2 7 7 -1 11 -10 11 -16 1 -32
-7 -11 -8 -21 -2 -25 5 -3 7 -14 5 -25 -3 -13 0 -18 7 -14 7 5 9 1 5 -9 -4
-12 -1 -17 11 -17 15 0 15 -2 2 -10 -12 -8 -12 -10 -1 -10 8 0 11 -3 8 -7 -4
-3 -2 -12 4 -20 9 -9 8 -13 0 -13 -9 0 -9 -5 -1 -20 8 -15 8 -20 -1 -20 -8 0
-9 -4 0 -13 6 -8 8 -17 4 -20 -3 -4 -1 -7 7 -7 10 0 10 -3 1 -14 -10 -12 -8
-14 11 -9 13 3 19 1 13 -4 -5 -4 -10 -15 -10 -23 0 -8 5 -18 10 -22 6 -5 5 -8
-4 -8 -11 0 -11 -3 -1 -15 7 -8 9 -22 6 -31 -5 -14 -4 -15 8 -5 12 10 14 7 12
-18 -1 -16 2 -28 6 -25 4 3 8 0 8 -5 0 -6 -5 -11 -12 -11 -6 0 -1 -11 12 -25
23 -25 37 -61 19 -49 -5 3 -9 0 -9 -5 0 -6 5 -11 11 -11 8 0 7 -6 -2 -17 -12
-14 -12 -16 0 -8 11 6 13 3 8 -14 -5 -19 -2 -22 13 -18 15 4 17 0 14 -20 -3
-14 1 -32 8 -41 8 -9 8 -13 2 -9 -7 4 -14 0 -17 -7 -4 -10 0 -13 14 -11 17 3
18 1 7 -18 -10 -20 -10 -21 6 -8 15 12 17 12 14 0 -2 -8 -7 -17 -13 -21 -6 -5
-6 -8 1 -8 7 0 15 -7 18 -16 3 -8 2 -12 -4 -9 -6 3 -10 1 -10 -4 0 -6 5 -11
11 -11 5 0 7 -4 4 -10 -3 -6 1 -10 9 -10 8 0 18 -5 22 -12 4 -7 3 -8 -4 -4 -8
5 -11 -1 -10 -18 1 -15 6 -26 11 -26 4 0 5 -5 1 -12 -5 -7 -2 -9 7 -6 10 4 15
-1 16 -16 1 -70 3 -78 17 -73 10 4 13 -2 12 -24 -1 -16 1 -29 6 -29 4 0 8 -5
8 -11 0 -5 -4 -8 -9 -5 -21 13 -3 -28 20 -45 13 -10 19 -19 12 -19 -6 0 -9 -9
-6 -21 3 -11 11 -18 19 -15 9 3 11 0 7 -11 -5 -11 -3 -14 6 -8 10 6 11 3 3
-11 -7 -14 -5 -27 8 -46 9 -16 19 -25 23 -22 3 3 4 -11 2 -32 -2 -25 0 -33 6
-23 8 13 13 6 10 -13 0 -5 4 -8 11 -8 6 0 8 -3 5 -7 -4 -3 -1 -13 6 -21 8 -11
8 -14 0 -9 -6 4 -14 3 -17 -1 -3 -5 5 -15 19 -22 13 -7 21 -18 18 -26 -3 -8 0
-14 7 -14 6 0 8 -5 3 -12 -11 -19 -13 -39 -2 -32 5 3 6 11 2 17 -3 7 3 3 15
-7 24 -21 29 -32 10 -20 -8 5 -9 0 -5 -17 4 -13 7 -28 7 -32 0 -5 4 -6 8 -3 4
2 13 -4 20 -14 7 -12 8 -21 2 -25 -5 -3 2 -17 18 -31 15 -14 21 -23 15 -19 -7
3 -13 1 -13 -4 0 -6 5 -11 11 -11 5 0 8 -3 6 -7 -5 -8 17 -34 25 -30 2 1 -3
-4 -11 -11 -13 -10 -12 -12 5 -12 16 0 17 -2 4 -10 -13 -8 -13 -10 1 -10 9 0
23 -8 30 -17 13 -16 12 -17 -4 -4 -15 12 -17 12 -11 -3 3 -9 10 -16 14 -16 5
0 7 -9 5 -20 -3 -13 0 -18 7 -14 7 5 9 2 5 -9 -4 -11 -2 -14 8 -11 9 4 13 -2
11 -20 -2 -14 0 -23 5 -20 11 6 27 -28 21 -45 -3 -10 0 -12 11 -8 9 3 18 -1
21 -9 9 -24 7 -36 -5 -28 -8 4 -8 0 0 -15 13 -24 27 -27 35 -8 3 6 3 0 1 -15
-2 -16 1 -28 7 -28 7 0 7 -5 -1 -14 -9 -11 -8 -15 4 -20 9 -3 13 -2 10 3 -3 5
0 13 6 17 7 4 9 3 5 -4 -3 -6 -1 -14 5 -18 8 -4 7 -9 -2 -15 -11 -6 -10 -9 4
-15 9 -3 17 -14 17 -24 0 -20 24 -43 34 -33 4 4 4 0 0 -10 -4 -11 -1 -17 7
-17 11 0 11 -2 1 -8 -9 -6 -7 -13 10 -28 22 -19 23 -19 8 1 -12 17 -12 18 0 7
18 -15 20 -34 5 -44 -5 -4 1 -8 15 -9 14 0 20 -3 13 -6 -13 -5 -10 -10 30 -54
18 -20 23 -34 9 -25 -5 3 -9 -1 -9 -8 0 -8 6 -12 14 -9 7 3 16 -2 19 -11 3 -9
11 -13 18 -9 6 3 8 2 3 -2 -4 -5 1 -18 10 -29 10 -12 11 -15 3 -9 -29 27 -31
12 -1 -16 17 -16 31 -34 31 -41 0 -6 5 -8 10 -5 6 3 10 -4 10 -17 0 -19 -2
-20 -11 -8 -9 13 -10 13 -6 0 2 -8 12 -14 22 -12 13 3 16 -1 11 -13 -3 -9 -2
-14 2 -12 11 6 43 -31 32 -38 -5 -3 -7 -12 -3 -21 4 -11 9 -12 18 -4 11 9 12
7 8 -9 -4 -16 -1 -21 13 -21 16 0 17 -2 4 -10 -13 -9 -13 -10 0 -11 8 -1 19
-1 23 0 5 1 6 -3 3 -8 -4 -5 -3 -11 1 -14 5 -2 2 -2 -5 -1 -18 5 -15 -4 9 -29
12 -12 18 -16 14 -8 -6 10 -4 12 4 7 7 -5 10 -15 7 -23 -3 -8 -2 -11 3 -8 5 3
12 -4 16 -15 3 -11 13 -20 21 -20 12 0 19 -19 15 -43 -1 -4 7 -7 16 -5 12 2
17 -3 15 -15 -2 -9 2 -17 8 -17 6 0 8 -5 4 -12 -4 -6 -3 -8 3 -5 13 8 37 -18
29 -31 -3 -5 6 -19 19 -30 14 -12 25 -27 25 -33 0 -5 5 -7 12 -3 7 5 9 2 5 -8
-4 -12 2 -18 21 -23 20 -5 23 -8 11 -16 -11 -7 -11 -9 4 -9 10 0 15 -4 12 -10
-3 -5 -1 -10 4 -10 6 0 11 -9 11 -21 0 -11 4 -18 9 -15 5 3 15 -2 22 -11 8 -9
9 -14 3 -10 -6 3 -11 0 -11 -7 0 -8 8 -11 20 -8 14 3 18 1 13 -6 -4 -7 -2 -12
4 -12 7 0 9 -7 6 -16 -3 -8 -2 -13 2 -10 16 9 51 -24 47 -44 -3 -14 0 -17 13
-13 15 6 15 4 4 -10 -12 -14 -11 -16 6 -12 16 3 20 -1 17 -16 -2 -11 0 -17 4
-15 4 3 17 -2 27 -10 10 -9 12 -13 4 -9 -8 4 -6 0 4 -9 10 -8 23 -13 29 -9 6
3 7 1 3 -5 -8 -13 38 -65 48 -55 4 4 4 0 1 -9 -4 -9 -1 -19 6 -24 8 -5 10 -3
4 7 -7 12 -6 12 7 1 10 -8 14 -20 11 -29 -4 -11 -2 -14 5 -9 15 9 65 -41 56
-56 -5 -8 -2 -9 10 -5 11 4 19 1 23 -11 4 -9 13 -22 21 -28 9 -7 12 -16 7 -24
-5 -9 -4 -11 3 -6 11 6 16 -6 13 -26 0 -5 8 -8 18 -8 11 0 22 -9 26 -19 3 -11
13 -25 22 -33 14 -11 16 -11 8 1 -5 10 -4 12 4 7 9 -6 9 -11 0 -22 -10 -12 -9
-13 5 -8 9 3 16 1 16 -6 0 -6 5 -8 10 -5 9 6 15 -17 10 -40 -1 -5 2 -7 5 -3 4
4 17 2 29 -4 11 -7 25 -11 29 -10 4 1 3 -7 -3 -18 -8 -16 -8 -18 4 -14 8 3 19
-3 26 -16 6 -11 15 -18 21 -15 5 4 9 1 9 -5 0 -6 5 -8 10 -5 6 3 10 -1 10 -10
0 -10 -5 -13 -12 -9 -9 5 -9 2 1 -9 14 -17 26 -24 17 -9 -2 4 -1 14 5 22 7 12
9 12 9 -3 0 -10 6 -25 14 -33 17 -17 30 -19 20 -2 -4 7 -3 8 4 4 6 -4 8 -14 5
-23 -4 -11 -3 -14 5 -9 7 4 12 2 12 -4 0 -6 5 -8 10 -5 5 3 10 -1 10 -9 0 -15
12 -21 34 -17 5 1 6 -4 3 -11 -7 -20 18 -39 33 -25 10 9 11 9 6 0 -4 -7 2 -17
14 -23 14 -8 19 -17 15 -28 -3 -9 -3 -13 1 -10 8 8 34 -14 27 -24 -2 -4 4 -5
13 -1 13 5 16 3 11 -10 -4 -11 -2 -14 7 -11 7 3 21 -2 30 -11 9 -9 16 -13 16
-8 0 4 7 -3 16 -15 8 -12 20 -19 26 -16 7 4 8 2 4 -4 -4 -7 -3 -12 3 -12 5 0
12 -9 16 -20 3 -11 9 -19 13 -19 20 3 30 -3 36 -23 5 -19 8 -21 16 -8 9 14 15
7 11 -14 -1 -5 6 -3 15 5 10 8 15 9 12 4 -4 -6 -3 -17 2 -25 7 -12 11 -12 27
1 16 12 17 12 6 -1 -10 -13 -8 -18 8 -28 11 -7 17 -17 14 -22 -6 -9 8 -14 20
-7 2 1 12 -8 21 -21 9 -14 22 -21 31 -18 8 3 12 2 9 -3 -3 -4 9 -18 26 -31 17
-12 28 -16 24 -9 -4 8 -1 6 7 -3 8 -10 18 -14 22 -10 5 4 6 2 2 -3 -7 -13 8
-39 23 -41 5 -1 20 -2 32 -3 12 0 18 -4 15 -8 -9 -8 12 -33 27 -33 6 0 4 5 -4
11 -13 9 -13 10 0 6 8 -2 13 -12 12 -22 -3 -17 -2 -17 13 -5 14 12 17 10 22
-8 3 -12 12 -22 20 -22 9 0 11 -5 7 -12 -5 -8 0 -7 11 2 17 14 18 13 13 -7 -3
-12 -3 -22 1 -21 21 2 31 -3 25 -15 -6 -9 -4 -9 8 1 13 10 16 9 21 -9 5 -18 9
-19 27 -9 20 11 21 10 10 -10 -7 -13 -7 -20 -2 -16 15 9 42 -4 42 -21 0 -8 4
-12 10 -8 13 8 50 -17 50 -33 0 -7 5 -10 10 -7 6 4 8 12 4 18 -3 7 3 2 14 -10
11 -12 23 -19 28 -15 5 4 2 -1 -6 -11 -11 -16 -11 -18 1 -15 8 2 17 8 21 13 5
6 8 5 8 -3 0 -7 5 -10 10 -7 6 4 10 3 9 -2 -4 -22 3 -31 21 -28 18 3 25 -6 21
-28 -1 -5 3 -6 9 -2 6 4 18 1 27 -7 14 -11 16 -11 9 0 -7 12 -4 12 14 2 16 -9
19 -14 11 -20 -8 -4 -1 -10 19 -13 17 -4 29 -11 25 -16 -3 -5 0 -13 6 -17 8
-5 9 -3 4 6 -6 10 -4 11 11 6 10 -5 25 -9 31 -9 9 0 10 -4 2 -13 -7 -8 -6 -14
2 -20 8 -5 9 -3 4 6 -6 10 -4 12 9 7 10 -4 22 -7 27 -7 5 0 9 -5 9 -11 0 -5
-5 -7 -12 -3 -7 4 -8 3 -4 -5 6 -9 11 -9 24 1 13 11 14 11 7 -1 -6 -11 -4 -13
8 -8 12 4 14 2 10 -10 -4 -10 -2 -14 5 -9 6 3 15 -1 20 -11 8 -14 13 -15 25
-5 11 10 17 9 28 -5 13 -17 13 -17 -6 -4 -19 14 -19 14 -4 -3 9 -10 28 -19 42
-19 14 -1 23 -6 19 -11 -3 -5 2 -7 11 -3 9 3 19 1 23 -5 4 -6 3 -8 -4 -4 -6 3
-13 2 -16 -3 -4 -5 5 -8 18 -7 14 2 27 -3 30 -10 3 -8 12 -14 21 -14 8 0 15
-4 15 -10 0 -5 5 -10 11 -10 5 0 7 5 4 10 -3 6 -2 10 4 10 5 0 13 -9 16 -21 6
-17 9 -18 23 -7 12 10 14 10 8 0 -7 -11 11 -17 37 -13 5 1 5 -4 1 -10 -9 -15
17 -30 32 -18 15 12 39 -15 28 -32 -5 -8 -3 -9 5 -5 16 11 68 -12 76 -32 6
-15 8 -15 21 2 12 17 14 17 14 4 0 -9 9 -20 20 -23 11 -4 18 -11 15 -16 -4 -5
4 -5 19 0 19 8 27 6 38 -7 12 -16 11 -16 -7 -2 -18 14 -19 14 -6 -2 10 -13 18
-15 31 -8 15 8 23 4 41 -18 20 -26 21 -26 14 -3 -5 16 -4 21 4 17 6 -4 11 -13
11 -21 0 -8 9 -12 25 -11 13 2 22 -1 19 -5 -3 -5 0 -9 6 -9 6 0 8 -5 4 -11 -5
-8 1 -10 20 -7 15 3 26 1 26 -6 0 -6 5 -4 10 4 7 11 10 11 10 2 0 -7 4 -11 9
-8 5 3 8 -2 7 -11 0 -10 7 -17 21 -18 12 -1 20 1 18 5 -2 4 2 7 10 7 8 0 12
-4 9 -9 -3 -4 0 -8 6 -8 6 0 8 -5 4 -11 -4 -7 2 -6 17 2 21 11 23 10 11 -3
-10 -13 -9 -15 13 -11 25 5 60 -18 47 -32 -4 -4 3 -2 16 4 16 9 22 9 22 0 0
-8 4 -8 15 1 12 10 15 10 15 -3 0 -11 5 -14 17 -10 11 4 14 3 9 -5 -8 -13 2
-15 47 -12 15 1 27 -4 27 -10 0 -6 -5 -8 -12 -4 -10 6 -10 4 0 -8 13 -16 40
-17 62 -3 6 3 10 0 10 -8 0 -10 7 -13 21 -10 14 4 25 0 31 -11 5 -9 14 -13 20
-10 6 4 14 0 19 -7 6 -10 9 -11 9 -1 0 6 5 12 11 12 5 0 7 -4 4 -10 -3 -5 1
-10 9 -10 9 0 16 -4 16 -9 0 -14 29 -21 36 -9 5 7 2 8 -6 3 -9 -6 -11 -4 -6 4
6 9 13 8 29 -6 11 -10 17 -12 13 -6 -5 9 -2 11 10 6 15 -6 15 -7 -2 -20 -17
-13 -17 -14 10 -7 19 5 31 2 37 -7 7 -11 9 -9 9 6 1 18 1 19 11 2 8 -14 14
-15 30 -6 12 6 23 8 27 5 3 -3 0 -6 -7 -6 -9 0 -9 -4 1 -14 10 -11 16 -11 27
-2 12 9 13 8 7 -3 -7 -11 0 -13 32 -9 33 3 42 0 46 -15 3 -11 9 -16 16 -12 6
4 18 1 27 -7 14 -11 16 -11 8 2 -7 12 -6 13 6 3 12 -10 18 -10 27 -1 9 9 12 9
12 0 0 -7 5 -12 11 -12 5 0 8 4 5 9 -4 5 5 4 18 -2 17 -8 21 -14 13 -19 -7 -4
7 -7 30 -5 26 2 40 -1 36 -7 -4 -5 1 -7 10 -3 10 4 17 1 17 -6 0 -8 4 -6 10 3
8 13 10 12 10 -3 0 -10 4 -15 10 -12 5 3 10 0 10 -7 0 -9 3 -9 10 2 9 13 10
13 10 0 0 -12 2 -13 9 -1 7 10 10 10 13 1 3 -10 9 -10 27 0 19 10 22 9 16 -1
-6 -9 -2 -11 13 -7 15 4 22 2 22 -7 0 -8 5 -17 12 -21 8 -5 9 -2 4 11 -6 15
-4 16 10 5 8 -8 38 -14 65 -14 27 1 49 -4 49 -9 0 -5 6 -4 14 2 10 9 17 7 27
-6 8 -9 9 -14 2 -10 -6 4 -14 4 -17 -1 -2 -4 4 -9 15 -9 10 -1 19 4 19 10 0 8
3 8 8 2 11 -16 33 -17 50 -3 13 11 14 11 8 -1 -6 -9 -5 -12 5 -9 8 3 24 1 37
-3 14 -6 21 -5 17 0 -3 5 -1 12 5 16 5 3 10 -1 10 -11 0 -11 6 -15 20 -11 11
3 23 0 27 -5 4 -7 1 -8 -7 -3 -8 5 -11 4 -7 -2 3 -5 22 -8 42 -7 26 2 34 0 28
-9 -4 -7 1 -6 11 2 15 13 19 13 27 0 5 -8 9 -9 9 -2 0 12 17 12 37 0 7 -4 17
0 23 10 10 15 11 15 6 1 -2 -9 2 -19 10 -22 10 -4 13 -1 9 7 -4 6 -1 5 7 -3
10 -11 34 -15 93 -15 44 0 90 -3 102 -7 13 -4 24 -2 27 5 3 8 11 5 23 -9 12
-14 26 -20 42 -18 13 2 29 0 35 -5 7 -6 17 -6 26 -1 20 13 33 12 24 -1 -4 -7
2 -6 17 1 17 10 24 10 27 2 3 -9 9 -9 24 -1 16 8 19 8 13 -1 -6 -9 -3 -9 13
-1 26 14 35 14 26 0 -4 -8 -1 -8 12 -1 24 13 27 13 63 2 16 -4 32 -5 36 -2 10
10 35 11 35 1 0 -6 5 -7 12 -3 19 12 62 11 70 0 5 -7 8 -5 8 4 0 13 1 13 10 0
6 -9 13 -11 18 -5 8 11 44 17 38 6 -2 -3 7 -12 21 -18 21 -10 23 -10 13 3 -7
8 -10 14 -7 14 3 0 14 3 24 6 14 5 15 4 3 -4 -11 -8 -7 -11 18 -10 17 1 29 4
27 8 -2 4 2 7 10 7 8 0 14 -3 13 -6 -2 -26 3 -31 21 -21 27 14 31 13 25 -7 -4
-14 -2 -13 7 2 18 28 31 35 46 23 9 -7 17 -7 27 1 10 8 16 9 21 1 4 -7 12 -7
26 0 13 8 19 7 19 0 0 -6 5 -8 10 -5 18 11 80 14 80 4 0 -6 9 -5 20 1 15 8 20
8 20 -1 0 -8 4 -8 15 1 12 10 15 10 15 0 0 -9 4 -9 17 1 14 12 15 12 9 1 -7
-11 -4 -12 12 -3 26 14 35 14 26 0 -4 -7 1 -7 16 1 12 7 25 8 29 4 11 -15 43
-13 37 2 -3 7 -1 16 5 19 5 4 8 1 7 -7 -2 -8 4 -12 16 -10 13 2 16 -1 10 -10
-6 -11 -5 -11 8 0 18 14 68 13 81 -3 5 -5 6 -1 3 11 -7 23 18 29 43 10 12 -9
14 -8 9 5 -4 10 -1 16 8 16 8 0 14 -4 14 -9 0 -5 7 -2 16 6 12 12 20 13 35 5
11 -6 30 -10 42 -9 12 1 24 1 27 0 18 -7 52 -5 57 3 4 6 1 7 -8 2 -8 -5 -10
-4 -6 0 10 12 39 16 32 5 -3 -5 0 -12 6 -16 7 -4 9 -3 6 3 -12 19 27 40 70 38
29 -2 40 1 36 9 -4 6 4 2 17 -9 13 -11 20 -14 15 -6 -6 11 -3 13 13 9 15 -4
22 -2 22 8 0 8 5 14 11 14 5 0 8 -4 4 -9 -3 -5 0 -13 6 -17 8 -4 9 -3 5 4 -3
6 3 16 15 22 17 10 20 9 13 -2 -4 -7 3 -4 16 7 13 11 20 15 17 8 -5 -8 2 -11
22 -11 19 1 28 5 24 12 -4 7 -2 7 8 -1 20 -16 31 -17 40 -1 7 10 9 10 9 0 0
-7 5 -10 10 -7 6 4 7 12 3 18 -4 7 1 6 10 -2 15 -12 17 -12 11 2 -5 13 0 15
21 11 19 -3 25 -1 20 8 -4 7 1 4 9 -6 9 -11 16 -15 16 -8 0 6 7 9 17 5 10 -4
14 -2 9 5 -3 6 -1 14 5 18 7 4 9 3 6 -2 -3 -6 -2 -16 4 -24 7 -13 9 -12 9 2 0
9 5 20 12 24 6 4 8 3 4 -4 -4 -7 2 -10 14 -9 12 1 18 7 16 14 -3 7 0 15 6 19
6 4 8 3 4 -4 -3 -6 -2 -13 4 -17 5 -3 10 -2 10 4 0 5 15 8 33 7 17 -1 38 2 45
7 8 6 12 5 12 -2 0 -7 5 -9 10 -6 6 4 8 10 5 15 -7 12 40 24 60 16 8 -3 15 -2
15 3 0 4 11 6 24 4 13 -3 27 1 31 8 5 7 4 10 -3 5 -6 -3 -14 -1 -18 6 -4 7 -4
10 1 6 4 -4 17 -3 28 3 14 8 18 8 13 0 -9 -14 0 -14 25 -1 14 8 19 7 19 -1 0
-8 7 -6 19 5 12 11 21 14 26 7 3 -6 12 -11 18 -11 8 0 8 3 -2 9 -20 13 -2 19
47 17 27 -2 38 1 30 7 -9 6 -6 7 10 4 13 -3 22 0 22 6 0 8 3 8 9 -1 6 -10 11
-9 22 4 9 12 10 15 2 10 -7 -4 -13 -2 -13 3 0 14 6 14 32 0 15 -8 19 -8 14 0
-4 6 -2 11 3 11 6 0 11 -6 11 -12 0 -10 2 -10 9 0 4 7 14 12 21 10 8 -2 15 3
16 10 3 26 5 27 14 12 7 -12 10 -12 10 -1 0 7 6 11 14 8 7 -3 19 0 26 6 10 9
11 9 6 0 -3 -6 -1 -15 5 -19 8 -5 9 -3 4 6 -6 10 -4 12 10 6 15 -5 16 -4 6 8
-8 10 -9 16 -1 21 5 3 10 0 10 -7 0 -10 2 -10 9 0 11 17 21 17 32 0 6 -10 9
-8 9 7 0 17 2 17 10 5 8 -12 10 -12 10 -1 0 11 3 11 17 0 15 -13 15 -12 4 10
-7 13 -8 21 -3 17 6 -3 13 0 15 6 4 10 6 10 6 1 1 -17 28 -17 34 0 4 9 6 8 6
-2 1 -9 8 -6 21 9 11 13 20 18 20 11 0 -7 5 -9 10 -6 6 4 7 11 4 17 -5 7 -1 7
12 0 14 -8 21 -6 31 6 12 15 12 15 7 -3 -4 -17 -3 -16 8 3 11 18 16 20 27 10
8 -8 11 -8 8 -2 -4 7 0 15 9 18 10 4 13 2 8 -7 -6 -9 -5 -9 8 0 8 7 19 9 23 5
5 -4 6 0 2 10 -8 21 3 31 20 17 9 -9 13 -8 13 0 0 6 5 11 11 11 5 0 8 -4 5 -8
-2 -4 4 -8 14 -8 11 0 16 5 12 15 -3 9 -1 12 6 7 8 -4 12 0 12 11 0 14 2 15 9
4 6 -9 11 -10 15 -2 4 6 12 11 17 11 6 0 7 -5 3 -12 -4 -7 8 -1 27 12 19 14
40 24 46 22 7 -2 13 2 13 7 0 6 10 15 21 22 17 9 20 8 13 -2 -4 -7 6 -3 23 9
17 12 37 22 45 22 8 0 20 6 27 13 8 6 11 7 8 1 -3 -6 0 -11 8 -11 8 0 12 4 9
9 -3 4 0 8 6 8 6 0 9 4 6 9 -3 5 5 9 19 9 15 0 22 -5 19 -12 -3 -6 4 2 16 17
18 22 25 25 36 16 12 -10 13 -8 9 7 -5 17 -5 17 6 2 12 -15 14 -14 32 9 11 13
26 22 33 19 8 -3 14 -1 14 4 0 11 60 41 70 35 5 -3 12 4 15 16 6 17 9 19 16 8
7 -12 9 -12 9 0 0 11 3 11 17 0 9 -8 14 -9 10 -3 -8 13 19 27 34 19 5 -4 6 1
3 10 -5 13 0 15 27 11 19 -3 28 -3 22 0 -7 3 -13 10 -13 16 0 5 6 8 13 5 6 -2
18 3 25 12 8 9 11 11 8 5 -12 -24 27 -8 54 23 30 33 46 43 35 21 -4 -7 1 -4 9
6 11 13 16 15 16 6 0 -16 15 -3 15 13 0 7 9 11 19 9 12 -2 16 1 11 9 -5 7 -3
10 6 7 8 -3 20 2 28 9 7 8 20 12 28 9 9 -4 11 -2 7 6 -5 8 -2 9 10 5 10 -4 15
-3 11 3 -6 9 8 14 27 11 5 0 7 2 6 7 -3 13 14 42 25 42 7 0 7 -4 -1 -12 -21
-21 -13 -29 10 -9 11 11 25 18 29 15 5 -3 6 1 3 9 -3 8 0 18 7 23 8 4 10 3 5
-4 -4 -7 -2 -12 3 -12 6 0 11 5 11 11 0 8 5 7 15 -1 13 -11 14 -10 9 4 -4 11
-1 16 10 16 9 0 16 5 16 10 0 6 9 10 21 10 13 0 18 4 13 12 -5 8 -2 9 9 5 19
-7 42 26 32 46 -4 6 1 3 9 -7 10 -12 16 -15 16 -7 0 8 6 11 15 7 13 -5 19 5
16 26 0 4 6 5 14 2 8 -4 18 1 21 10 5 13 9 14 20 5 12 -10 13 -8 8 6 -6 14 -3
16 17 10 13 -3 19 -3 13 2 -9 6 -8 11 2 21 8 7 14 10 14 6 0 -3 7 -1 15 6 12
10 13 15 3 28 -11 13 -10 14 10 3 15 -8 22 -8 22 -1 0 6 4 9 9 6 10 -7 33 18
26 27 -3 4 -2 5 2 2 3 -3 13 1 21 8 13 10 14 9 8 -3 -4 -8 2 -4 13 10 18 21
20 22 15 5 -5 -18 -4 -18 8 -4 7 9 20 18 28 22 11 4 12 6 1 6 -11 1 -11 4 -1
16 10 12 16 13 27 3 8 -6 13 -7 12 -2 -4 21 2 35 11 29 6 -3 10 -1 10 5 0 6 5
8 10 5 6 -3 10 1 10 9 0 9 5 16 11 16 5 0 7 -6 4 -12 -4 -7 0 -5 8 4 8 10 17
15 20 11 4 -3 7 -1 7 4 0 6 -6 14 -12 17 -7 3 -2 3 11 0 17 -5 21 -3 16 7 -6
9 -4 11 8 6 12 -4 15 -1 12 14 -3 16 -1 17 15 9 15 -8 23 -5 39 16 11 14 25
23 30 20 6 -4 8 2 6 13 -3 15 0 18 12 14 11 -4 14 -2 9 5 -6 11 5 16 26 14 3
-1 9 5 12 14 4 10 2 13 -7 8 -8 -6 -8 -3 1 8 7 9 22 15 33 13 11 -2 23 4 29
16 6 11 16 16 22 13 6 -4 8 -3 4 4 -3 6 3 13 14 17 11 4 18 11 15 16 -4 5 -3
9 2 9 4 0 19 10 33 21 14 11 18 18 10 14 -8 -4 -6 1 4 9 16 13 22 13 29 3 6
-8 7 -4 4 11 -5 20 -3 22 11 10 12 -10 14 -10 8 0 -7 11 12 18 38 13 5 -1 3 5
-4 14 -11 14 -11 16 1 13 8 -2 13 2 12 9 -2 8 4 10 14 6 10 -4 14 -2 10 4 -4
6 3 13 15 16 19 5 20 8 7 23 -13 16 -12 16 8 6 16 -9 24 -9 29 0 4 7 3 8 -4 4
-7 -4 -12 -2 -12 3 0 6 7 11 16 11 8 0 12 5 9 10 -3 6 3 10 14 10 12 0 21 7
21 15 0 8 7 15 15 15 8 0 15 6 15 14 0 22 24 38 38 24 9 -9 11 -6 7 10 -2 12
1 25 7 28 7 4 8 2 4 -4 -4 -7 -1 -12 9 -12 11 0 15 5 12 15 -4 8 -1 17 5 21 7
5 8 2 4 -7 -4 -8 -1 -6 7 3 8 10 18 14 22 10 4 -4 2 4 -5 18 -10 21 -10 23 1
13 16 -15 33 -17 24 -3 -3 5 -1 10 5 10 6 0 9 4 6 9 -3 5 2 15 12 22 15 13 16
12 3 -3 -8 -12 -9 -18 -2 -18 6 0 13 11 17 25 5 22 9 24 22 13 13 -11 15 -10
9 5 -3 9 -2 17 3 17 5 0 6 8 3 18 -7 16 -6 16 11 -1 24 -23 27 -22 15 9 -8 24
-8 25 6 14 10 -8 15 -9 15 -1 0 23 2 26 21 33 10 4 19 15 19 24 0 10 5 14 14
11 8 -3 17 1 20 9 4 10 2 13 -7 8 -8 -5 -7 -2 2 9 9 12 17 14 26 7 9 -7 11 -2
10 19 -1 22 5 33 22 42 12 7 23 16 23 21 0 5 4 6 10 3 6 -4 7 1 3 11 -4 11 -2
15 4 11 6 -4 14 0 17 9 3 8 10 12 16 9 6 -4 7 1 3 11 -3 10 -2 15 3 12 5 -3
30 17 56 44 26 26 44 48 40 48 -4 0 1 5 11 11 9 6 15 15 11 20 -3 6 0 9 7 7 8
-1 16 2 18 7 2 6 11 16 20 23 9 8 10 11 4 7 -7 -3 -13 -1 -13 4 0 6 6 11 14
11 7 0 20 8 27 17 13 17 13 17 -6 3 -19 -14 -19 -14 -6 3 8 10 21 15 30 12 12
-4 12 -2 -2 9 -16 13 -16 14 9 20 22 6 24 9 13 22 -7 8 -8 14 -3 13 22 -4 44
2 44 12 0 5 -4 8 -8 5 -5 -3 -9 2 -9 10 0 8 6 13 13 10 8 -3 16 -1 19 4 4 6 0
10 -7 11 -7 0 -2 5 12 10 20 8 22 12 10 20 -12 8 -9 10 11 6 21 -3 25 0 22 14
-5 17 32 46 51 41 5 -2 3 4 -4 13 -11 13 -10 15 6 9 10 -4 16 -3 11 1 -4 5 0
16 9 26 9 10 14 25 10 34 -3 9 -2 14 2 11 5 -3 14 4 22 14 8 10 17 17 22 14 4
-3 5 2 2 10 -3 9 3 20 15 27 16 11 18 16 8 28 -9 12 -9 13 1 7 7 -4 12 -2 12
4 0 6 5 8 12 4 8 -5 9 -2 5 9 -4 10 -2 16 6 14 7 -1 11 4 9 11 -1 7 5 15 13
18 8 4 15 12 15 20 0 8 8 14 18 14 14 0 15 2 2 10 -13 8 -12 10 3 10 10 0 15
5 12 10 -3 6 1 10 10 10 9 0 13 5 10 10 -3 6 0 10 7 11 7 0 4 4 -7 9 -17 7
-17 9 -2 9 9 1 17 6 17 12 0 5 5 7 10 4 13 -8 13 1 -2 28 -10 20 -10 21 5 8
12 -9 17 -10 17 -2 0 7 4 10 9 6 5 -3 13 0 17 6 5 8 3 9 -5 5 -21 -13 -8 27
16 50 16 17 19 24 10 34 -10 10 -8 10 9 2 19 -10 21 -9 18 13 -1 16 2 23 9 18
6 -4 8 0 4 10 -4 10 -2 16 5 14 6 -1 15 9 19 23 4 14 7 19 8 12 1 -7 5 -11 11
-7 5 3 7 12 4 19 -3 8 0 17 6 21 8 5 8 11 -1 21 -10 12 -10 15 2 12 8 -2 17
-7 21 -13 4 -5 8 -1 8 10 0 11 14 35 30 53 17 18 30 36 30 40 0 4 -7 -1 -14
-10 -16 -21 -28 -24 -20 -4 3 7 17 19 32 25 21 10 23 14 11 22 -8 5 -9 9 -3 9
7 0 15 11 18 25 4 14 11 23 16 20 6 -3 7 1 4 9 -3 9 -1 16 5 16 6 0 11 -5 11
-12 0 -6 3 -8 6 -5 4 4 1 13 -6 22 -10 12 -10 15 0 15 7 0 10 7 6 16 -3 8 -2
12 4 9 6 -3 10 3 10 15 0 11 6 23 14 26 8 3 12 12 9 20 -3 8 1 14 10 14 9 0
19 5 23 12 5 8 2 9 -11 4 -18 -7 -18 -6 -1 13 10 11 15 24 11 30 -4 7 0 8 11
4 14 -5 16 -2 12 15 -4 14 -2 22 7 22 7 0 16 7 19 16 5 12 3 14 -7 8 -7 -5 -4
-1 6 9 12 11 15 17 6 17 -8 0 -5 6 7 16 10 8 13 12 5 8 -10 -5 -12 -3 -7 5 6
9 11 9 21 1 11 -10 13 -8 10 9 -2 12 -7 26 -11 33 -4 6 -3 8 4 4 6 -3 13 -2
17 4 3 5 0 10 -7 11 -7 0 -3 4 10 10 18 7 22 14 17 29 -4 11 -3 19 2 18 4 -2
8 0 8 4 0 4 9 14 20 23 11 9 14 14 8 10 -15 -7 -18 21 -3 30 6 4 7 11 4 17 -4
7 -2 8 5 4 9 -6 9 -11 -1 -23 -12 -15 -11 -15 10 -2 12 8 18 15 12 17 -5 2
-10 10 -10 18 0 9 5 12 10 9 6 -3 10 -1 10 4 0 6 -5 11 -11 11 -5 0 -8 4 -4
10 3 5 13 6 23 3 15 -6 15 -5 3 10 -12 15 -11 17 4 17 13 0 15 3 6 13 -11 14
-5 27 11 27 5 0 6 -5 2 -12 -4 -6 -3 -8 3 -5 5 3 8 19 7 36 -1 18 3 29 10 28
6 -1 10 4 8 12 -2 8 3 11 11 8 10 -4 13 2 11 18 -1 13 -5 28 -8 34 -4 5 -2 12
4 16 6 4 8 10 5 15 -3 5 0 12 6 16 8 5 9 3 4 -7 -8 -12 -6 -12 9 0 13 11 14
16 4 22 -10 7 -10 9 -1 9 7 0 10 6 7 14 -3 8 0 17 7 22 8 5 10 3 4 -6 -5 -8
-4 -11 3 -7 5 4 9 18 7 32 -2 22 0 23 13 13 13 -11 14 -10 3 10 -13 25 -7 42
14 42 9 0 12 6 9 15 -4 9 0 15 7 15 11 0 11 3 -1 10 -12 8 -12 10 -1 10 11 0
11 3 0 17 -13 15 -12 15 7 5 16 -9 21 -8 21 3 0 8 -5 11 -11 8 -6 -3 -6 -1 1
7 6 7 9 19 6 28 -5 11 -2 13 6 7 10 -6 11 -3 2 13 -8 15 -7 23 3 31 7 6 17 7
21 3 5 -4 6 0 2 9 -3 9 0 22 6 29 9 10 9 11 0 6 -7 -4 -13 -3 -13 3 0 6 9 15
20 21 14 8 19 19 16 40 -2 17 1 30 7 30 5 0 4 6 -3 15 -6 8 -10 20 -7 27 4 8
6 7 6 -4 1 -18 31 -14 31 4 0 5 -6 6 -12 2 -7 -4 -4 3 7 16 12 14 14 20 5 15
-13 -8 -13 -7 -1 8 11 14 11 17 0 17 -9 1 -6 8 9 19 17 15 22 30 22 65 0 25 4
46 9 46 11 0 25 48 22 73 -1 9 3 17 10 17 9 0 9 3 0 14 -10 12 -8 17 7 25 14
7 18 18 15 36 -3 14 -1 25 6 25 5 0 8 6 5 14 -3 7 1 20 8 27 15 16 16 28 5 46
-4 6 -2 15 4 18 5 4 8 13 5 20 -3 9 2 12 15 10 16 -3 17 -1 10 14 -7 13 -5 24
6 41 9 12 12 25 6 29 -5 3 -9 18 -8 33 0 20 3 24 13 16 9 -8 11 -7 6 7 -6 14
-4 16 7 10 11 -7 11 -5 -1 10 -8 10 -10 16 -3 12 8 -5 11 6 9 38 -1 25 1 45 5
45 4 0 6 9 4 21 -3 17 -2 19 10 9 12 -10 13 -8 10 9 -2 12 1 21 8 21 8 0 8 3
2 8 -13 8 -13 22 -1 41 5 7 5 16 0 20 -13 9 -17 34 -4 26 14 -9 13 8 -2 24
-11 10 -9 11 6 5 13 -5 17 -4 13 3 -4 6 0 16 8 23 9 8 12 18 6 27 -4 8 -5 33
-1 54 4 22 3 42 -2 45 -5 4 -5 10 1 17 5 7 10 17 10 22 1 6 5 10 10 10 5 0 13
3 17 8 4 4 2 7 -5 7 -9 0 -9 5 -1 20 8 15 8 20 -2 20 -10 0 -10 2 1 9 9 6 10
10 2 16 -7 4 -8 12 -3 18 10 14 10 27 -1 44 -4 6 -1 17 6 25 8 7 11 20 9 28
-5 13 -3 13 13 0 16 -13 17 -13 10 -1 -11 19 -13 61 -3 55 4 -3 8 0 8 5 0 6
-4 11 -10 11 -5 0 -10 5 -10 11 0 5 4 8 9 4 11 -6 9 35 -3 53 -4 7 -3 12 1 12
5 0 9 9 9 20 0 11 -4 20 -9 20 -5 0 -1 7 8 16 12 12 13 20 6 27 -8 8 -5 15 11
25 l23 13 -25 -7 c-20 -6 -23 -4 -14 7 6 8 14 31 18 52 5 24 11 35 18 31 7 -4
8 -3 4 4 -4 7 -15 12 -24 12 -14 0 -14 2 -3 9 8 5 16 19 18 31 2 14 -1 19 -9
14 -7 -5 -8 -3 -3 7 13 21 14 119 1 119 -7 0 -7 3 -1 8 12 9 20 46 8 39 -5 -3
-9 3 -9 14 0 13 5 18 15 14 10 -4 11 -2 4 7 -6 7 -9 23 -8 36 1 12 -3 22 -9
22 -5 0 -1 7 10 16 10 8 14 13 8 10 -7 -3 -15 1 -18 10 -3 8 -2 12 4 9 13 -8
9 46 -4 64 -9 12 -8 13 3 6 11 -6 13 -1 9 23 -3 22 0 33 11 37 13 5 12 10 -8
26 -13 10 -18 19 -12 19 6 0 11 7 11 16 0 9 5 12 12 8 6 -4 4 3 -5 16 -15 22
-15 24 1 37 16 14 16 14 -1 9 -11 -4 -16 -2 -12 5 4 5 1 17 -6 25 -6 8 -9 17
-5 21 3 3 6 1 6 -5 0 -6 10 -16 23 -22 20 -10 20 -10 4 3 -21 17 -35 113 -14
101 6 -4 4 2 -5 13 -10 11 -18 24 -18 29 0 5 5 2 10 -6 8 -13 10 -12 10 3 0
10 -5 28 -11 39 -7 13 -7 18 -1 14 11 -7 9 114 -2 133 -4 5 -2 13 4 16 8 5 7
12 -2 23 -10 12 -10 14 0 8 6 -4 12 -2 12 3 0 6 -5 11 -12 11 -6 0 -3 7 8 16
10 8 14 13 8 10 -7 -3 -15 1 -18 10 -3 8 -2 12 4 9 6 -3 10 -1 10 4 0 6 -4 11
-10 11 -5 0 -10 5 -10 11 0 5 4 8 8 5 4 -2 8 15 8 40 0 26 -4 43 -11 40 -5 -2
-9 -9 -7 -15 1 -7 -2 -10 -7 -6 -6 3 -1 21 12 42 11 20 17 34 12 31 -6 -3 -16
0 -22 8 -9 9 -9 15 -2 19 7 5 4 14 -7 26 -9 11 -12 19 -6 19 6 0 9 7 6 15 -4
9 0 15 7 15 11 0 11 2 2 8 -7 4 -11 25 -10 50 2 23 -2 44 -8 46 -5 2 -4 5 3 5
18 1 15 21 -4 21 -14 0 -14 1 0 16 17 16 22 29 8 20 -4 -2 -16 3 -27 11 -19
15 -19 15 -1 9 20 -7 20 -7 0 15 -10 12 -13 19 -6 15 14 -8 16 3 3 23 -6 9 -6
22 0 32 6 12 5 20 -1 24 -6 4 -7 12 -3 18 13 22 11 56 -5 69 -13 11 -15 11 -7
-2 7 -13 6 -13 -6 -1 -11 11 -11 14 -1 18 10 4 8 9 -5 19 -10 7 -13 14 -6 14
9 0 10 7 4 22 -4 13 -5 35 0 50 6 22 4 28 -8 28 -12 0 -13 3 -4 13 13 17 2 31
-13 17 -8 -6 -12 -3 -12 11 0 10 4 19 8 19 5 0 4 8 -1 18 -7 13 -6 23 1 30 8
8 8 12 1 12 -6 0 -10 19 -9 43 0 28 -4 41 -12 39 -7 -1 -12 9 -13 25 0 16 -2
36 -4 46 -2 9 2 17 8 18 7 0 2 4 -10 9 -16 7 -21 14 -16 26 4 10 2 15 -4 11
-5 -3 -10 0 -10 8 0 8 5 11 11 8 6 -4 4 2 -4 12 -11 14 -12 19 -3 22 10 4 10
8 -1 18 -8 8 -12 28 -10 46 4 28 2 30 -13 18 -12 -10 -14 -10 -9 -1 4 7 2 12
-6 12 -8 0 -9 3 -3 8 16 10 17 54 2 45 -7 -4 -6 0 2 10 11 14 11 17 0 17 -11
0 -11 2 1 10 12 8 10 10 -9 10 -19 0 -21 3 -12 14 8 9 8 16 2 20 -5 4 -8 20
-6 36 2 16 0 32 -5 35 -5 3 -7 -4 -5 -15 2 -12 0 -18 -6 -14 -6 3 -8 9 -5 12
4 3 -1 16 -9 29 -9 13 -11 23 -5 23 5 0 10 -4 10 -10 0 -5 5 -10 12 -10 7 0 6
6 -4 18 -9 10 -14 32 -13 52 2 19 1 30 -2 23 -3 -8 -9 -7 -23 4 -14 12 -16 22
-9 45 7 25 5 31 -11 35 -15 4 -17 9 -10 23 7 13 5 21 -5 30 -11 9 -12 17 -5
30 8 16 7 18 -10 15 -11 -2 -18 0 -15 5 3 4 1 20 -5 35 -8 20 -7 24 3 18 6 -4
4 6 -7 21 -10 16 -14 26 -9 23 5 -4 10 0 10 8 0 11 -5 12 -21 3 -19 -10 -19
-9 -8 4 9 11 10 18 2 23 -5 3 -10 11 -10 16 0 6 5 7 11 3 8 -5 8 -1 0 13 -6
11 -8 23 -5 26 9 8 -19 3 -36 -7 -12 -7 -13 -6 -2 5 6 7 12 21 12 32 0 12 -4
16 -12 11 -9 -5 -9 -2 1 9 9 12 10 17 2 17 -7 0 -9 5 -6 10 3 6 -1 10 -11 10
-13 0 -14 3 -5 14 9 11 9 16 0 22 -8 5 -9 3 -4 -6 5 -8 4 -11 -2 -7 -5 3 -8
20 -7 36 1 17 -1 29 -4 27 -4 -2 -13 2 -20 10 -9 10 -9 14 -1 14 8 0 7 5 -2
17 -9 11 -10 14 -2 9 9 -5 11 -2 7 8 -3 8 -11 13 -18 10 -9 -3 -12 6 -11 31 0
25 -5 41 -17 49 -10 7 -15 16 -11 19 3 4 0 7 -8 7 -11 0 -11 2 1 10 13 8 13
10 -2 10 -9 0 -20 4 -23 10 -4 6 1 7 12 4 17 -5 17 -5 1 9 -10 8 -18 28 -18
46 0 17 -5 31 -11 31 -5 0 -7 5 -3 12 5 8 2 9 -9 5 -18 -7 -19 13 -2 25 6 5 5
8 -2 8 -7 0 -13 8 -13 18 0 14 -2 15 -10 2 -7 -11 -10 -7 -11 20 -1 19 -1 38
0 43 0 4 -6 7 -15 7 -8 0 -12 -4 -9 -10 3 -5 1 -10 -4 -10 -14 0 -14 13 1 28
9 9 9 12 0 12 -7 0 -11 3 -11 8 4 24 -3 41 -15 36 -10 -4 -13 3 -10 26 3 22 0
29 -8 24 -8 -5 -9 -2 -4 11 5 15 4 16 -8 6 -12 -10 -14 -9 -12 6 4 25 -15 64
-27 56 -6 -4 -8 2 -5 15 4 13 1 25 -6 30 -13 7 -36 44 -36 57 0 3 5 3 12 -1 7
-4 8 -3 4 4 -4 7 -14 12 -22 12 -8 0 -12 5 -9 10 3 6 1 10 -6 10 -9 0 -9 3 0
14 9 11 7 15 -9 19 -11 3 -19 9 -18 14 1 4 -3 18 -10 31 -7 12 -9 22 -5 22 4
0 -2 7 -13 15 -16 13 -17 16 -4 25 12 9 11 10 -6 5 -14 -3 -26 1 -35 12 -9 11
-10 14 -1 9 17 -10 10 30 -8 47 -11 9 -11 7 0 -8 14 -19 14 -19 -3 -6 -10 8
-16 22 -14 33 3 11 0 18 -10 18 -8 0 -11 5 -8 10 3 6 2 10 -3 10 -6 0 -8 9 -5
20 3 12 0 20 -6 20 -7 0 -9 -5 -5 -12 5 -9 2 -9 -9 1 -18 15 -23 26 -7 16 6
-3 10 -1 10 4 0 6 -5 11 -11 11 -5 0 -8 4 -5 8 3 5 -6 16 -20 27 -20 15 -22
21 -12 34 7 9 8 13 3 8 -9 -7 -40 50 -36 67 1 5 -5 4 -13 -3 -13 -11 -15 -10
-11 8 2 12 -1 21 -7 21 -5 0 -7 7 -4 16 5 13 4 14 -7 6 -17 -14 -28 -6 -20 16
5 11 3 13 -8 7 -12 -7 -12 -6 -1 7 11 14 10 17 -7 23 -12 3 -21 11 -21 16 0 6
5 7 12 3 7 -4 8 -3 4 4 -4 7 -14 12 -22 12 -8 0 -14 9 -14 20 0 11 -6 20 -12
20 -9 0 -8 4 2 10 13 8 12 10 -2 10 -10 0 -18 7 -18 16 0 9 -9 18 -20 21 -10
3 -22 14 -25 24 -4 10 -11 19 -16 19 -5 0 -9 5 -9 11 0 5 5 7 12 3 7 -4 8 -3
4 4 -4 6 -14 8 -23 5 -11 -4 -14 -3 -9 5 4 8 0 12 -11 12 -15 0 -16 2 -3 10
13 8 11 13 -10 32 l-24 23 19 -25 20 -25 -22 18 c-12 11 -19 25 -16 33 3 8 1
14 -4 14 -4 0 -14 9 -21 21 -10 15 -10 19 -1 14 8 -5 10 -4 5 3 -4 7 -14 12
-22 12 -8 0 -14 6 -14 14 0 8 -6 17 -12 19 -10 4 -10 8 1 15 11 8 10 11 -7 16
-12 4 -24 16 -27 27 -4 10 -11 19 -16 19 -6 0 -7 -5 -3 -12 4 -7 3 -8 -5 -4
-9 6 -9 11 1 24 10 12 10 14 1 8 -8 -4 -13 -2 -13 4 0 6 -5 8 -12 4 -7 -5 -9
0 -6 14 3 12 3 21 -1 20 -3 0 -15 0 -26 1 -14 1 -16 4 -7 13 9 9 7 15 -6 25
-11 10 -12 12 -2 7 12 -6 13 -5 2 7 -7 8 -17 15 -23 15 -5 1 -12 2 -15 3 -4 0
-1 8 6 17 8 8 9 14 4 13 -22 -4 -34 2 -34 17 0 8 -3 13 -7 11 -10 -6 -34 19
-26 27 4 3 1 6 -5 6 -5 0 -13 -6 -15 -12 -3 -7 -4 2 -2 20 2 18 0 30 -6 26 -5
-3 -6 -11 -3 -17 4 -7 -2 -3 -13 8 -11 11 -19 28 -17 38 3 20 -11 23 -20 5 -4
-7 -4 -3 -2 10 3 13 -1 22 -9 22 -7 0 -19 8 -26 18 -13 16 -13 16 6 2 19 -14
19 -14 6 3 -7 9 -20 17 -27 17 -8 0 -13 3 -13 8 3 20 -2 32 -13 29 -7 -1 -12
4 -11 11 3 11 -10 16 -30 13 -5 -1 -6 3 -2 9 3 5 -1 13 -10 16 -11 5 -13 10
-5 19 9 11 6 12 -11 8 -19 -5 -21 -3 -16 18 6 23 6 24 -10 4 -15 -19 -15 -19
-11 7 6 30 -24 69 -37 49 -3 -6 -12 -11 -18 -11 -8 0 -8 3 -2 8 13 9 18 32 7
32 -5 0 -17 7 -28 16 -10 8 -13 12 -5 8 9 -5 12 -3 7 4 -4 7 -16 12 -26 12
-10 0 -22 5 -26 12 -5 7 -3 8 7 3 12 -8 12 -6 0 8 -8 10 -19 14 -25 10 -7 -5
-3 0 7 10 19 17 19 17 -4 15 -16 -2 -27 5 -35 22 -7 14 -26 32 -41 41 -18 10
-28 23 -27 37 1 12 -3 19 -7 16 -5 -3 -6 -11 -3 -17 4 -7 -4 0 -19 16 -14 15
-31 27 -37 27 -5 0 -10 7 -10 15 0 9 -6 12 -15 9 -10 -4 -13 -2 -10 8 3 8 -2
21 -12 29 -17 13 -17 13 -3 -5 14 -18 14 -18 -7 -6 -12 8 -19 18 -17 22 3 4 0
8 -6 8 -6 0 -8 5 -5 10 3 6 -1 10 -10 10 -10 0 -13 5 -9 12 4 7 3 8 -4 4 -6
-4 -20 2 -31 13 -11 11 -23 16 -27 13 -4 -4 -4 -2 -1 4 3 6 -3 18 -14 27 -11
10 -17 22 -13 28 4 7 -3 6 -17 -1 -13 -7 -21 -9 -17 -5 9 10 -9 45 -23 45 -12
0 -40 26 -34 32 2 2 -6 10 -18 17 -20 13 -21 13 -9 -2 12 -14 11 -15 -12 -4
-16 8 -21 14 -13 19 8 5 7 8 -5 8 -9 0 -26 15 -38 33 -12 17 -19 24 -16 15 9
-30 -3 -20 -18 15 -8 17 -15 26 -15 19 -1 -9 -12 -5 -32 12 -17 14 -36 26 -42
27 -7 0 -3 5 8 10 17 8 16 9 -7 6 -17 -3 -25 0 -21 6 4 7 -1 8 -12 3 -16 -6
-16 -4 -4 11 9 11 10 14 2 9 -8 -4 -13 -2 -13 4 0 6 -4 8 -10 5 -5 -3 -10 3
-10 14 0 12 -3 20 -7 20 -22 -4 -33 3 -33 17 0 12 -6 15 -21 11 -15 -4 -19 -2
-15 8 3 8 0 17 -6 21 -7 4 -8 3 -4 -4 12 -19 -12 -13 -26 6 -13 19 -46 37 -61
33 -5 -1 -6 3 -2 9 5 8 12 7 23 -1 10 -7 -1 4 -23 24 -22 19 -42 33 -45 31 -2
-3 2 -9 10 -14 8 -6 10 -10 4 -10 -6 0 -17 7 -24 15 -7 8 -17 12 -24 8 -7 -4
-6 -1 1 8 10 13 10 16 0 16 -26 1 -42 9 -55 26 -7 9 -19 17 -27 17 -8 0 -17 5
-21 12 -5 7 -2 8 7 3 15 -9 10 -4 -35 35 -16 14 -26 19 -22 13 4 -7 3 -13 -3
-13 -13 0 -41 29 -41 43 0 7 -4 6 -10 -3 -8 -12 -10 -12 -11 5 l0 20 -9 -20
c-6 -14 -9 -16 -10 -5 -2 8 -2 18 -1 22 0 3 -11 5 -24 3 -22 -2 -23 0 -13 13
10 13 10 14 1 8 -8 -4 -13 -2 -13 4 0 7 -7 9 -16 6 -10 -4 -13 -2 -8 6 5 8 2
9 -9 5 -9 -3 -19 -1 -23 5 -5 7 -2 8 7 4 8 -4 5 -1 -5 8 -10 8 -22 13 -27 11
-4 -3 -11 4 -14 15 -5 17 -10 19 -21 9 -10 -8 -14 -8 -14 0 0 6 -6 11 -14 11
-10 0 -13 7 -11 21 3 15 1 18 -8 11 -15 -12 -48 -12 -41 0 3 5 10 5 16 2 7 -4
8 -2 4 5 -4 6 -12 9 -17 6 -5 -4 -9 -2 -9 4 0 6 -7 8 -15 5 -9 -4 -15 -1 -15
7 0 8 -11 19 -25 26 -14 6 -23 7 -19 2 3 -5 2 -9 -1 -9 -9 0 -31 23 -38 40 -3
9 -6 10 -6 3 -1 -7 -6 -13 -12 -13 -5 0 -7 5 -3 12 5 8 2 9 -9 5 -11 -4 -17
-1 -17 8 0 9 -6 12 -15 9 -8 -4 -15 -1 -15 5 0 6 -5 11 -11 11 -5 0 -7 -5 -3
-12 5 -7 3 -8 -5 -4 -7 5 -10 10 -7 13 15 15 -56 55 -81 46 -10 -3 -15 -3 -11
1 8 9 -22 46 -37 46 -5 0 -3 -5 5 -10 8 -5 10 -10 4 -10 -17 0 -54 36 -46 46
4 4 -1 2 -10 -5 -13 -10 -18 -10 -18 -2 0 7 -4 10 -9 6 -5 -3 -17 2 -25 11 -9
9 -23 13 -31 10 -8 -3 -14 -2 -14 2 3 19 -2 25 -11 12 -8 -13 -10 -13 -10 2 0
9 6 19 13 22 6 3 -1 3 -17 1 -19 -3 -33 1 -40 11 -6 8 -21 16 -34 17 -12 0
-22 6 -22 12 0 5 -5 3 -10 -5 -8 -13 -10 -12 -10 3 0 9 -4 18 -10 18 -5 1 -14
3 -20 4 -5 1 -19 3 -30 4 -11 0 -20 8 -20 16 0 9 -6 12 -17 8 -12 -5 -14 -3
-8 8 7 11 5 11 -10 -1 -11 -9 -16 -10 -11 -2 4 7 2 12 -4 12 -6 0 -9 4 -6 9 3
4 -14 8 -38 7 -33 -1 -43 2 -42 14 1 8 -7 14 -16 14 -10 -1 -18 2 -18 7 0 5
-6 6 -14 3 -8 -3 -24 5 -36 18 -13 13 -20 18 -17 12 3 -6 0 -11 -7 -11 -9 0
-12 7 -8 16 4 13 1 12 -16 -2 -20 -19 -21 -18 -15 4 4 15 3 20 -5 15 -7 -4
-12 -2 -12 3 0 6 -5 11 -11 11 -5 0 -7 -6 -3 -12 6 -10 4 -10 -8 0 -13 10 -17
10 -22 0 -3 -7 -4 -4 -3 7 2 16 -4 20 -25 20 -15 1 -31 5 -35 10 -5 4 -2 5 6
0 10 -5 12 -4 7 3 -5 9 -13 9 -28 1 -15 -8 -19 -8 -14 0 4 6 0 11 -8 11 -9 0
-16 4 -16 9 0 4 -12 8 -27 9 -48 0 -53 2 -51 15 2 7 -6 12 -19 11 -13 -1 -23
4 -23 10 0 6 -5 4 -10 -4 -6 -10 -10 -11 -10 -2 0 6 -5 12 -11 12 -5 0 -7 -5
-3 -12 4 -7 3 -8 -4 -4 -6 4 -9 12 -6 20 3 7 -1 13 -8 13 -7 0 -22 4 -33 8
-16 5 -17 5 -5 -4 12 -8 11 -10 -7 -9 -12 1 -19 7 -16 15 5 12 -8 18 -29 14
-5 0 -8 3 -8 7 0 5 -7 9 -15 9 -8 0 -15 -5 -15 -10 0 -5 -12 2 -27 17 -24 24
-28 26 -33 10 -6 -16 -7 -16 -14 1 -6 16 -9 17 -16 5 -6 -9 -10 -10 -10 -3 0
6 -9 9 -22 5 -16 -4 -19 -2 -13 9 8 12 6 12 -9 0 -9 -8 -16 -10 -15 -5 1 5 1
16 0 24 -1 11 -4 11 -13 2 -14 -14 -32 -16 -24 -4 3 5 -9 9 -27 10 -17 0 -33
6 -35 11 -2 6 -11 11 -19 11 -25 0 -93 22 -89 29 3 4 -9 7 -25 7 -19 1 -26 -2
-22 -10 4 -6 -1 -5 -10 3 -14 11 -20 11 -34 0 -10 -7 -15 -9 -11 -5 12 14 -42
59 -56 47 -9 -7 -17 -7 -26 2 -8 7 -10 8 -7 1 5 -8 -3 -11 -22 -10 -16 0 -27
4 -25 8 3 5 -4 8 -15 8 -12 0 -21 5 -21 11 0 5 5 7 12 3 7 -4 8 -3 4 5 -6 8
-12 9 -20 2 -9 -7 -17 -7 -26 2 -9 8 -11 9 -6 0 7 -13 -31 -12 -53 2 -10 6
-12 4 -6 -5 6 -9 4 -11 -4 -6 -7 5 -10 14 -8 21 4 8 -4 11 -24 9 -21 -3 -28 0
-23 8 5 7 3 8 -7 3 -19 -13 -59 -15 -59 -4 0 11 -23 7 -32 -6 -5 -6 -8 -3 -8
7 0 11 -6 16 -18 13 -10 -2 -25 1 -33 7 -11 8 -11 9 3 4 10 -3 20 -1 23 3 5 9
-76 5 -102 -4 -7 -2 -13 1 -13 8 0 8 -4 6 -10 -3 -8 -12 -10 -12 -10 -1 0 10
-3 11 -14 2 -11 -10 -16 -8 -24 5 -6 10 -16 15 -26 11 -9 -3 -15 -3 -15 1 3
19 -2 25 -11 12 -9 -13 -10 -13 -10 0 0 13 -1 13 -10 0 -6 -10 -10 -11 -10 -2
0 6 -5 12 -11 12 -5 0 -7 -6 -3 -12 5 -9 2 -9 -9 1 -13 10 -17 10 -17 1 0 -10
-3 -10 -14 -1 -11 9 -15 9 -19 -1 -4 -10 -6 -10 -6 1 -1 11 -4 11 -18 0 -10
-8 -14 -9 -10 -2 4 6 3 14 -3 18 -5 3 -10 0 -10 -7 -1 -7 -8 -1 -16 15 -15 28
-27 37 -18 14 3 -8 -4 -13 -16 -14 -11 -1 -18 1 -16 5 3 4 -6 9 -20 10 -13 1
-24 -3 -24 -9 0 -5 -5 -7 -12 -3 -16 10 -60 15 -54 6 2 -4 -9 -7 -26 -6 -16 0
-34 7 -39 15 -7 11 -9 10 -10 -6 -1 -17 -2 -16 -9 5 -4 14 -8 20 -9 14 -1 -12
-64 -14 -76 -3 -3 4 6 5 20 4 14 -2 23 0 20 4 -5 10 -36 8 -54 -3 -8 -5 -16
-3 -21 5 -7 10 -12 10 -23 0 -12 -9 -16 -9 -19 1 -4 10 -8 10 -21 -1 -11 -9
-17 -10 -17 -2 0 6 -5 11 -11 11 -5 0 -7 -5 -3 -12 5 -7 3 -8 -7 -3 -18 12
-120 15 -113 4 3 -5 -2 -6 -10 -3 -9 3 -13 11 -10 18 3 6 -2 2 -10 -8 -9 -11
-16 -16 -16 -10 0 5 -21 9 -48 9 -26 0 -53 4 -61 10 -12 8 -13 6 -8 -9 6 -16
5 -17 -8 -6 -8 7 -12 17 -8 23 3 6 1 7 -6 3 -6 -4 -9 -12 -6 -17 9 -13 -30 -5
-49 10 -14 12 -16 12 -10 -3 5 -12 2 -15 -10 -10 -9 3 -13 11 -9 17 3 5 1 7
-5 3 -5 -3 -12 -3 -15 1 -2 5 -2 2 0 -5 1 -8 -3 -12 -9 -9 -7 2 -12 8 -11 13
1 5 -10 9 -23 9 -13 0 -22 -5 -20 -11 2 -6 -2 -11 -10 -11 -9 0 -13 6 -10 14
3 8 1 11 -5 8 -5 -4 -17 -1 -26 7 -9 7 -14 8 -10 2z m-103 -30 c0 -8 -19 -13
-24 -6 -3 5 1 9 9 9 8 0 15 -2 15 -3z m1649 -167 c0 -9 -2 -8 -6 1 -2 6 -10 9
-15 6 -7 -4 -8 -2 -4 5 9 13 26 5 25 -12z m1986 -717 c3 -6 -1 -7 -9 -4 -18 7
-21 14 -7 14 6 0 13 -4 16 -10z m619 -368 c3 -5 -1 -9 -9 -9 -8 0 -12 4 -9 9
3 4 7 8 9 8 2 0 6 -4 9 -8z m-8304 -102 c0 -5 -5 -10 -11 -10 -5 0 -7 5 -4 10
3 6 8 10 11 10 2 0 4 -4 4 -10z m-285 -218 c-3 -3 -11 0 -18 7 -9 10 -8 11 6
5 10 -3 15 -9 12 -12z m9650 -552 c3 -6 -1 -7 -9 -4 -18 7 -21 14 -7 14 6 0
13 -4 16 -10z m185 -185 c7 -9 8 -15 2 -15 -5 0 -12 7 -16 15 -3 8 -4 15 -2
15 2 0 9 -7 16 -15z m-11114 -550 c-1 -8 -5 -17 -8 -21 -5 -4 -4 16 1 34 3 9
9 -1 7 -13z m11973 -599 c-3 -3 -11 5 -18 17 -13 21 -12 21 5 5 10 -10 16 -20
13 -22z m-12415 -31 c-4 -8 -11 -15 -16 -15 -6 0 -5 6 2 15 7 8 14 15 16 15 2
0 1 -7 -2 -15z m13166 -1579 c0 -3 -4 -8 -10 -11 -5 -3 -10 -1 -10 4 0 6 5 11
10 11 6 0 10 -2 10 -4z m-14133 -1041 c0 -8 -4 -12 -9 -9 -5 3 -6 10 -3 15 9
13 12 11 12 -6z m14447 -535 c-6 -6 -10 -3 -10 10 0 13 4 16 10 10 7 -7 7 -13
0 -20z m-14543 -827 c13 -16 12 -17 -3 -4 -17 13 -22 21 -14 21 2 0 10 -8 17
-17z m14469 -1117 c0 -3 -4 -8 -10 -11 -5 -3 -10 -1 -10 4 0 6 5 11 10 11 6 0
10 -2 10 -4z m-14005 -1284 c-3 -3 -11 0 -18 7 -9 10 -8 11 6 5 10 -3 15 -9
12 -12z m889 -1648 c3 -8 2 -12 -4 -9 -6 3 -10 10 -10 16 0 14 7 11 14 -7z
m113 -159 c0 -8 -4 -12 -9 -9 -5 3 -6 10 -3 15 9 13 12 11 12 -6z m10247
-1394 c3 -5 -2 -15 -12 -22 -15 -12 -16 -12 -5 2 7 9 10 19 6 22 -3 4 -4 7 0
7 3 0 8 -4 11 -9z m-7924 -595 c0 -3 -4 -8 -10 -11 -5 -3 -10 -1 -10 4 0 6 5
11 10 11 6 0 10 -2 10 -4z m6920 -49 c0 -2 -10 -12 -22 -23 l-23 -19 19 23
c18 21 26 27 26 19z"/>
<path d="M7407 15336 c-4 -10 -1 -13 8 -9 8 3 12 9 9 14 -7 12 -11 11 -17 -5z"/>
<path d="M6440 15169 c0 -5 5 -7 10 -4 6 3 10 8 10 11 0 2 -4 4 -10 4 -5 0
-10 -5 -10 -11z"/>
<path d="M6074 15090 c0 -13 4 -16 10 -10 7 7 7 13 0 20 -6 6 -10 3 -10 -10z"/>
<path d="M5197 14783 c-4 -3 -7 -11 -7 -17 0 -6 5 -5 12 2 6 6 9 14 7 17 -3 3
-9 2 -12 -2z"/>
<path d="M12645 13740 c3 -5 8 -10 11 -10 2 0 4 5 4 10 0 6 -5 10 -11 10 -5 0
-7 -4 -4 -10z"/>
<path d="M2840 13180 c-9 -6 -10 -10 -3 -10 6 0 15 5 18 10 8 12 4 12 -15 0z"/>
<path d="M2146 12348 c3 -5 10 -6 15 -3 13 9 11 12 -6 12 -8 0 -12 -4 -9 -9z"/>
<path d="M15350 8199 c0 -5 5 -7 10 -4 6 3 10 8 10 11 0 2 -4 4 -10 4 -5 0
-10 -5 -10 -11z"/>
<path d="M747 8079 c7 -7 15 -10 18 -7 3 3 -2 9 -12 12 -14 6 -15 5 -6 -5z"/>
<path d="M810 7140 c0 -5 5 -10 11 -10 5 0 7 5 4 10 -3 6 -8 10 -11 10 -2 0
-4 -4 -4 -10z"/>
<path d="M15263 6914 c4 -4 1 -14 -6 -23 -11 -14 -10 -15 8 -1 11 8 21 15 23
16 2 1 -5 5 -15 8 -9 4 -14 4 -10 0z"/>
<path d="M15090 6080 c0 -5 5 -10 11 -10 5 0 7 5 4 10 -3 6 -8 10 -11 10 -2 0
-4 -4 -4 -10z"/>
<path d="M1030 6061 c0 -5 7 -12 16 -15 14 -5 15 -4 4 9 -14 17 -20 19 -20 6z"/>
<path d="M14850 5399 c0 -5 5 -7 10 -4 6 3 10 8 10 11 0 2 -4 4 -10 4 -5 0
-10 -5 -10 -11z"/>
<path d="M14460 4561 c0 -6 4 -13 10 -16 6 -3 7 1 4 9 -7 18 -14 21 -14 7z"/>
<path d="M2430 3406 c0 -2 7 -7 16 -10 8 -3 12 -2 9 4 -6 10 -25 14 -25 6z"/>
<path d="M2556 3257 c3 -10 9 -15 12 -12 3 3 0 11 -7 18 -10 9 -11 8 -5 -6z"/>
<path d="M2686 3127 c3 -10 9 -15 12 -12 3 3 0 11 -7 18 -10 9 -11 8 -5 -6z"/>
<path d="M2731 3074 c0 -11 3 -14 6 -6 3 7 2 16 -1 19 -3 4 -6 -2 -5 -13z"/>
<path d="M13390 3080 c0 -5 5 -10 11 -10 5 0 7 5 4 10 -3 6 -8 10 -11 10 -2 0
-4 -4 -4 -10z"/>
<path d="M13026 2713 c-6 -14 -5 -15 5 -6 7 7 10 15 7 18 -3 3 -9 -2 -12 -12z"/>
<path d="M3871 2084 c0 -11 3 -14 6 -6 3 7 2 16 -1 19 -3 4 -6 -2 -5 -13z"/>
<path d="M11139 1443 c-13 -16 -12 -17 4 -4 16 13 21 21 13 21 -2 0 -10 -8
-17 -17z"/>
<path d="M11065 1420 c-3 -5 -1 -10 4 -10 6 0 11 5 11 10 0 6 -2 10 -4 10 -3
0 -8 -4 -11 -10z"/>
<path d="M10900 1345 c-11 -13 -10 -14 4 -9 9 3 16 10 16 15 0 13 -6 11 -20
-6z"/>
<path d="M8996 832 c-3 -5 1 -9 9 -9 8 0 12 4 9 9 -3 4 -7 8 -9 8 -2 0 -6 -4
-9 -8z"/>
<path d="M8796 812 c-3 -5 1 -9 9 -9 8 0 12 4 9 9 -3 4 -7 8 -9 8 -2 0 -6 -4
-9 -8z"/>
<path d="M8710 789 c0 -5 5 -7 10 -4 6 3 10 8 10 11 0 2 -4 4 -10 4 -5 0 -10
-5 -10 -11z"/>
<path d="M8145 770 c-3 -5 -1 -10 4 -10 6 0 11 5 11 10 0 6 -2 10 -4 10 -3 0
-8 -4 -11 -10z"/>
<path d="M8016 762 c-3 -5 1 -9 9 -9 8 0 12 4 9 9 -3 4 -7 8 -9 8 -2 0 -6 -4
-9 -8z"/>
</g>
</svg>
